<svg width="1312" height="634" viewBox="0 0 1312 634" fill="none" xmlns="http://www.w3.org/2000/svg">
<line x1="972.259" y1="30.428" x2="206.796" y2="492.895" stroke="url(#paint0_linear)"/>
<line x1="512.259" y1="0.427958" x2="20.6891" y2="297.418" stroke="url(#paint1_linear)"/>
<line x1="492.259" y1="140.428" x2="0.689135" y2="437.418" stroke="url(#paint2_linear)"/>
<line x1="884.759" y1="396.438" x2="267.789" y2="57.1047" stroke="#DEDFF4" stroke-dasharray="7 7"/>
<line x1="1311.76" y1="359.438" x2="694.789" y2="20.1047" stroke="url(#paint3_linear)" stroke-dasharray="7 7"/>
<line x1="1171.76" y1="379.438" x2="765.081" y2="155.765" stroke="#DEDFF4"/>
<line x1="932.259" y1="170.428" x2="166.796" y2="632.895" stroke="url(#paint4_linear)" stroke-dasharray="7 7"/>
<path d="M758.041 329.33C757.447 329.472 756.775 329.472 756.181 329.33L756.415 329.003C756.202 328.952 756.001 328.877 755.826 328.776L752.896 327.084L752.462 327.334L746.601 323.95L747.034 323.7L741.173 320.316L740.74 320.566L734.878 317.182L735.311 316.932L729.45 313.548L729.017 313.798L723.155 310.415L723.588 310.165L717.727 306.781L717.294 307.031L711.432 303.647L711.865 303.397L706.004 300.013L705.571 300.263L699.709 296.879L700.142 296.629L694.281 293.245L693.848 293.495L687.986 290.112L688.419 289.862L682.558 286.478L682.125 286.728L676.263 283.344L676.696 283.094L670.835 279.71L670.402 279.96L664.54 276.576L664.973 276.326L659.112 272.942L658.679 273.192L652.817 269.809L653.25 269.559L647.389 266.175L646.956 266.425L641.094 263.041L641.527 262.791L635.666 259.407L635.233 259.657L629.371 256.273L629.804 256.023L623.943 252.639L623.51 252.889L617.648 249.506L618.081 249.256L615.151 247.564C614.976 247.463 614.845 247.347 614.756 247.224L614.19 247.359C613.945 247.016 613.945 246.628 614.19 246.285L614.756 246.42C614.845 246.297 614.976 246.181 615.151 246.08L618.428 244.188L617.995 243.939L624.549 240.155L624.982 240.405L631.537 236.621L631.104 236.371L637.658 232.587L638.091 232.837L644.646 229.053L644.213 228.803L650.767 225.019L651.2 225.269L657.755 221.485L657.322 221.235L663.877 217.451L664.31 217.701L670.864 213.917L670.431 213.667L676.986 209.883L677.419 210.133L680.696 208.241C680.871 208.14 681.071 208.065 681.285 208.014L681.051 207.687C681.645 207.545 682.316 207.545 682.91 207.687L682.676 208.014C682.89 208.065 683.09 208.14 683.265 208.241L686.196 209.933L686.629 209.683L692.49 213.067L692.057 213.317L697.919 216.701L698.352 216.451L704.213 219.835L703.78 220.085L709.642 223.468L710.075 223.218L715.936 226.602L715.503 226.852L721.365 230.236L721.798 229.986L727.659 233.37L727.226 233.62L733.088 237.004L733.521 236.754L739.382 240.138L738.949 240.388L744.811 243.771L745.244 243.521L751.105 246.905L750.672 247.155L756.534 250.539L756.967 250.289L762.828 253.673L762.395 253.923L768.257 257.307L768.69 257.057L774.551 260.441L774.118 260.691L779.98 264.074L780.413 263.825L786.274 267.208L785.841 267.458L791.702 270.842L792.136 270.592L797.997 273.976L797.564 274.226L803.425 277.61L803.858 277.36L809.72 280.744L809.287 280.994L815.148 284.378L815.581 284.128L821.443 287.511L821.01 287.761L823.941 289.453C824.116 289.554 824.247 289.67 824.335 289.793L824.901 289.658C825.147 290.001 825.147 290.389 824.901 290.732L824.335 290.596C824.247 290.72 824.116 290.835 823.941 290.936L820.663 292.828L821.096 293.078L814.542 296.862L814.109 296.612L807.554 300.396L807.987 300.646L801.433 304.43L801 304.18L794.445 307.964L794.878 308.214L788.324 311.998L787.891 311.748L781.336 315.532L781.769 315.782L775.215 319.566L774.782 319.316L768.227 323.1L768.66 323.35L762.106 327.134L761.673 326.884L758.395 328.776C758.22 328.877 758.02 328.952 757.807 329.003L758.041 329.33Z" fill="#4548B0" fill-opacity="0.1" stroke="#5D64D2" stroke-dasharray="7 7"/>
<path d="M213.358 308.211C212.767 308.363 212.095 308.375 211.499 308.244L211.727 307.913C211.513 307.866 211.311 307.794 211.134 307.696L208.17 306.053L207.741 306.31L201.811 303.024L202.24 302.766L196.31 299.48L195.882 299.737L189.952 296.451L190.38 296.194L184.451 292.907L184.022 293.165L178.092 289.878L178.521 289.621L172.591 286.335L172.163 286.592L166.233 283.306L166.661 283.048L160.732 279.762L160.303 280.019L154.373 276.733L154.802 276.476L148.872 273.189L148.444 273.447L142.514 270.16L142.942 269.903L137.013 266.617L136.584 266.874L130.654 263.588L131.083 263.33L125.153 260.044L124.725 260.302L118.795 257.015L119.223 256.758L113.294 253.471L112.865 253.729L106.935 250.443L107.364 250.185L104.399 248.542C104.222 248.444 104.089 248.33 103.999 248.209L103.436 248.354C103.184 248.015 103.177 247.628 103.417 247.28L103.985 247.406C104.071 247.281 104.2 247.163 104.373 247.059L107.352 245.269L106.915 245.027L112.873 241.447L113.31 241.689L119.268 238.109L118.83 237.867L124.788 234.287L125.226 234.53L131.183 230.95L130.746 230.707L136.704 227.127L137.141 227.37L143.099 223.79L142.662 223.548L148.62 219.968L149.057 220.21L155.015 216.63L154.577 216.388L160.535 212.808L160.973 213.051L166.93 209.471L166.493 209.228L172.451 205.649L172.888 205.891L178.846 202.311L178.409 202.069L184.367 198.489L184.804 198.731L190.762 195.151L190.324 194.909L196.282 191.329L196.719 191.572L202.677 187.992L202.24 187.749L208.198 184.17L208.635 184.412L214.593 180.832L214.156 180.59L220.113 177.01L220.551 177.252L226.509 173.673L226.071 173.43L232.029 169.85L232.466 170.093L235.445 168.303C235.619 168.199 235.818 168.12 236.03 168.065L235.79 167.742C236.382 167.59 237.053 167.578 237.65 167.71L237.421 168.041C237.636 168.088 237.837 168.16 238.014 168.258L240.979 169.901L241.408 169.643L247.337 172.93L246.909 173.187L252.838 176.474L253.267 176.216L259.197 179.502L258.768 179.76L264.698 183.046L265.127 182.789L271.056 186.075L270.628 186.333L276.557 189.619L276.986 189.361L282.916 192.648L282.487 192.905L288.417 196.192L288.846 195.934L294.775 199.22L294.347 199.478L300.276 202.764L300.705 202.507L306.635 205.793L306.206 206.051L312.136 209.337L312.564 209.079L318.494 212.366L318.066 212.623L323.995 215.91L324.424 215.652L330.354 218.938L329.925 219.196L335.855 222.482L336.283 222.225L342.213 225.511L341.785 225.769L344.749 227.412C344.926 227.51 345.059 227.623 345.15 227.745L345.713 227.6C345.965 227.938 345.972 228.326 345.732 228.673L345.164 228.548C345.078 228.673 344.949 228.791 344.775 228.895L341.797 230.685L342.234 230.927L336.276 234.507L335.839 234.264L329.881 237.844L330.318 238.087L324.36 241.666L323.923 241.424L317.965 245.004L318.403 245.246L312.445 248.826L312.007 248.584L306.05 252.164L306.487 252.406L300.529 255.986L300.092 255.743L294.134 259.323L294.571 259.566L288.613 263.145L288.176 262.903L282.218 266.483L282.656 266.725L276.698 270.305L276.26 270.063L270.303 273.642L270.74 273.885L264.782 277.465L264.345 277.222L258.387 280.802L258.824 281.044L252.866 284.624L252.429 284.382L246.471 287.962L246.909 288.204L240.951 291.784L240.513 291.542L234.556 295.121L234.993 295.364L229.035 298.944L228.598 298.701L222.64 302.281L223.077 302.523L217.119 306.103L216.682 305.861L213.703 307.651C213.53 307.755 213.331 307.834 213.118 307.889L213.358 308.211Z" fill="#4548B0" fill-opacity="0.1" stroke="#5D64D2" stroke-dasharray="7 7"/>
<defs>
<linearGradient id="paint0_linear" x1="838" y1="110" x2="956.002" y2="42.0041" gradientUnits="userSpaceOnUse">
<stop stop-color="#DEDFF4"/>
<stop offset="1" stop-color="#DEDFF4" stop-opacity="0"/>
</linearGradient>
<linearGradient id="paint1_linear" x1="385.54" y1="80.7776" x2="502.631" y2="9.19553" gradientUnits="userSpaceOnUse">
<stop stop-color="#DEDFF4"/>
<stop offset="1" stop-color="#DEDFF4" stop-opacity="0"/>
</linearGradient>
<linearGradient id="paint2_linear" x1="365.54" y1="220.778" x2="482.631" y2="149.196" gradientUnits="userSpaceOnUse">
<stop stop-color="#DEDFF4"/>
<stop offset="1" stop-color="#DEDFF4" stop-opacity="0"/>
</linearGradient>
<linearGradient id="paint3_linear" x1="666.001" y1="-0.000972302" x2="772.001" y2="59.9982" gradientUnits="userSpaceOnUse">
<stop stop-color="#DEDFF4" stop-opacity="0"/>
<stop offset="0.44993" stop-color="#DEDFF4"/>
</linearGradient>
<linearGradient id="paint4_linear" x1="734" y1="294" x2="916.002" y2="182.004" gradientUnits="userSpaceOnUse">
<stop stop-color="#DEDFF4"/>
<stop offset="1" stop-color="#DEDFF4" stop-opacity="0"/>
</linearGradient>
</defs>
</svg>
