<svg width="184" height="45" viewBox="0 0 184 45" fill="none" xmlns="http://www.w3.org/2000/svg">
<g filter="url(#filter0_d)">
<path d="M4.5 4C4.5 2.89543 5.39543 2 6.5 2H177.636C178.741 2 179.636 2.89543 179.636 4V37C179.636 38.1046 178.741 39 177.636 39H6.5C5.39543 39 4.5 38.1046 4.5 37V4Z" fill="#4548B0"/>
<path d="M32.3994 18.2965V26.9531L36.6362 24.5078V15.6943L32.3994 18.2965Z" fill="#33369F"/>
<path d="M28.7774 11L20.5 15.5244L25.0375 18.2966L28.7643 16.2044L32.3995 18.2966L36.6363 15.6944L28.7774 11Z" fill="#B7B9E7"/>
<path d="M20.5 15.5244L25.0506 18.2966L25.0114 22.5726L30.085 25.3186L30.1373 30L20.5 24.534V15.5244Z" fill="#7173CD"/>
<path d="M28.7642 16.2046L32.3994 18.2968C32.3994 18.2968 32.4093 22.6307 32.4093 22.5654C32.6734 22.6923 28.8165 20.6506 28.8165 20.6506L28.7642 16.2046Z" fill="#7173CD"/>
<path d="M25.0112 22.5728L28.8165 20.6506L28.7642 16.2046L25.0505 18.2968L25.0112 22.5728Z" fill="#33369F"/>
<path d="M30.0849 25.3187L25.0112 22.5726L28.8165 20.6504L33.6809 23.2395L30.0849 25.3187Z" fill="#B7B9E7"/>
<path d="M30.1373 29.9997L33.6156 27.6591L33.681 23.2393L30.085 25.3184L30.1373 29.9997Z" fill="#33369F"/>
<path d="M20.9458 15.7989C22.3057 16.6358 23.6906 17.4603 25.0506 18.2972C26.2928 17.6041 27.5224 16.8974 28.7647 16.2043C29.9808 16.8974 31.1846 17.6034 32.4007 18.2965C33.643 17.5119 34.8993 16.7807 36.1354 16.0016L28.7655 11.5752C26.1633 12.9874 23.5611 14.3866 20.9458 15.7989Z" fill="#B7B9E7"/>
<path d="M45.853 15.1357V25H49.5513C52.5044 25 54.1929 23.1885 54.1929 20.0234C54.1929 16.9268 52.4839 15.1357 49.5513 15.1357H45.853ZM47.6167 16.6602H49.3188C51.2534 16.6602 52.395 17.8975 52.395 20.0508C52.395 22.252 51.2808 23.4756 49.3188 23.4756H47.6167V16.6602ZM59.1626 18.7178C60.1812 18.7178 60.8511 19.4287 60.8853 20.5361H57.3647C57.4399 19.4424 58.1509 18.7178 59.1626 18.7178ZM60.8989 22.9424C60.6528 23.4961 60.0718 23.8037 59.231 23.8037C58.1167 23.8037 57.3989 23.0244 57.3579 21.7803V21.6914H62.5806V21.1445C62.5806 18.7861 61.3022 17.3711 59.1694 17.3711C57.0024 17.3711 55.6558 18.8818 55.6558 21.2881C55.6558 23.6943 56.9819 25.1504 59.1831 25.1504C60.9468 25.1504 62.1841 24.3027 62.5054 22.9424H60.8989ZM68.3569 17.3984C67.3315 17.3984 66.4634 17.9111 66.0327 18.7588H65.9165V17.5215H64.2827V27.4883H65.978V23.8652H66.0942C66.4771 24.6582 67.3042 25.123 68.3774 25.123C70.2642 25.123 71.4399 23.6465 71.4399 21.2607C71.4399 18.8613 70.2505 17.3984 68.3569 17.3984ZM67.8237 23.6807C66.6685 23.6807 65.9507 22.7578 65.9438 21.2607C65.9507 19.7705 66.6753 18.8408 67.8306 18.8408C68.9927 18.8408 69.6968 19.75 69.6968 21.2607C69.6968 22.7715 68.9995 23.6807 67.8237 23.6807ZM73.2104 25H74.9058V14.6299H73.2104V25ZM80.2788 23.7285C79.0962 23.7285 78.4194 22.8262 78.4194 21.2607C78.4194 19.7021 79.0962 18.793 80.2788 18.793C81.4546 18.793 82.1313 19.7021 82.1313 21.2607C82.1313 22.8262 81.4614 23.7285 80.2788 23.7285ZM80.2788 25.1504C82.5142 25.1504 83.8745 23.6875 83.8745 21.2607C83.8745 18.8408 82.5073 17.3711 80.2788 17.3711C78.0571 17.3711 76.6831 18.8477 76.6831 21.2607C76.6831 23.6875 78.0366 25.1504 80.2788 25.1504ZM86.103 27.7139C87.7778 27.7139 88.5776 27.0986 89.2134 25.2393L91.9136 17.5215H90.1226L88.3794 23.3594H88.2632L86.5132 17.5215H84.6538L87.3267 25.0342L87.2378 25.3623C87.019 26.0527 86.6157 26.3262 85.8979 26.3262C85.7817 26.3262 85.5288 26.3193 85.4331 26.2988V27.6865C85.5425 27.707 86.0005 27.7139 86.103 27.7139ZM97.6489 15.6895V17.5693H96.4663V18.9229H97.6489V23.0039C97.6489 24.4531 98.3325 25.0342 100.048 25.0342C100.376 25.0342 100.691 25 100.937 24.9521V23.626C100.732 23.6465 100.602 23.6602 100.363 23.6602C99.6519 23.6602 99.3374 23.332 99.3374 22.5938V18.9229H100.937V17.5693H99.3374V15.6895H97.6489ZM105.791 23.7285C104.608 23.7285 103.931 22.8262 103.931 21.2607C103.931 19.7021 104.608 18.793 105.791 18.793C106.966 18.793 107.643 19.7021 107.643 21.2607C107.643 22.8262 106.973 23.7285 105.791 23.7285ZM105.791 25.1504C108.026 25.1504 109.386 23.6875 109.386 21.2607C109.386 18.8408 108.019 17.3711 105.791 17.3711C103.569 17.3711 102.195 18.8477 102.195 21.2607C102.195 23.6875 103.548 25.1504 105.791 25.1504ZM123.523 26.0186L122.292 24.2002C123.332 23.3662 123.919 21.9102 123.919 20.0713C123.919 16.8789 122.115 14.8896 119.264 14.8896C116.4 14.8896 114.588 16.8721 114.588 20.0713C114.588 23.2773 116.379 25.2461 119.264 25.2461C119.886 25.2461 120.481 25.1504 121 24.9727L121.752 26.0186H123.523ZM119.264 23.6807C117.507 23.6807 116.393 22.293 116.393 20.0713C116.393 17.8496 117.507 16.4551 119.264 16.4551C121 16.4551 122.115 17.8564 122.115 20.0713C122.115 21.2197 121.8 22.1357 121.233 22.6621L120.611 21.8828H118.916L120.098 23.5645C119.832 23.6396 119.551 23.6807 119.264 23.6807ZM128.992 23.7285C127.809 23.7285 127.132 22.8262 127.132 21.2607C127.132 19.7021 127.809 18.793 128.992 18.793C130.167 18.793 130.844 19.7021 130.844 21.2607C130.844 22.8262 130.174 23.7285 128.992 23.7285ZM128.992 25.1504C131.227 25.1504 132.587 23.6875 132.587 21.2607C132.587 18.8408 131.22 17.3711 128.992 17.3711C126.77 17.3711 125.396 18.8477 125.396 21.2607C125.396 23.6875 126.75 25.1504 128.992 25.1504ZM133.346 17.5215L136.005 25H137.872L140.517 17.5215H138.726L137.01 23.3047H136.894L135.165 17.5215H133.346ZM144.79 18.7178C145.808 18.7178 146.478 19.4287 146.512 20.5361H142.992C143.067 19.4424 143.778 18.7178 144.79 18.7178ZM146.526 22.9424C146.28 23.4961 145.699 23.8037 144.858 23.8037C143.744 23.8037 143.026 23.0244 142.985 21.7803V21.6914H148.208V21.1445C148.208 18.7861 146.929 17.3711 144.796 17.3711C142.629 17.3711 141.283 18.8818 141.283 21.2881C141.283 23.6943 142.609 25.1504 144.81 25.1504C146.574 25.1504 147.811 24.3027 148.132 22.9424H146.526ZM149.91 25H151.605V20.6797C151.605 19.6338 152.371 18.9502 153.471 18.9502C153.758 18.9502 154.209 18.998 154.339 19.0459V17.4736C154.182 17.4258 153.881 17.3984 153.635 17.3984C152.671 17.3984 151.865 17.9453 151.66 18.6836H151.543V17.5215H149.91V25ZM156.623 27.7139C158.297 27.7139 159.097 27.0986 159.733 25.2393L162.433 17.5215H160.642L158.899 23.3594H158.783L157.033 17.5215H155.173L157.846 25.0342L157.757 25.3623C157.539 26.0527 157.135 26.3262 156.417 26.3262C156.301 26.3262 156.048 26.3193 155.953 26.2988V27.6865C156.062 27.707 156.52 27.7139 156.623 27.7139Z" fill="white"/>
<path d="M6.5 3H177.636V1H6.5V3ZM178.636 4V37H180.636V4H178.636ZM177.636 38H6.5V40H177.636V38ZM5.5 37V4H3.5V37H5.5ZM6.5 38C5.94771 38 5.5 37.5523 5.5 37H3.5C3.5 38.6569 4.84314 40 6.5 40V38ZM178.636 37C178.636 37.5523 178.189 38 177.636 38V40C179.293 40 180.636 38.6569 180.636 37H178.636ZM177.636 3C178.189 3 178.636 3.44771 178.636 4H180.636C180.636 2.34315 179.293 1 177.636 1V3ZM6.5 1C4.84315 1 3.5 2.34315 3.5 4H5.5C5.5 3.44772 5.94772 3 6.5 3V1Z" fill="#4548B0"/>
</g>
<defs>
<filter id="filter0_d" x="0.5" y="0" width="183.136" height="45" filterUnits="userSpaceOnUse" color-interpolation-filters="sRGB">
<feFlood flood-opacity="0" result="BackgroundImageFix"/>
<feColorMatrix in="SourceAlpha" type="matrix" values="0 0 0 0 0 0 0 0 0 0 0 0 0 0 0 0 0 0 127 0"/>
<feOffset dy="2"/>
<feGaussianBlur stdDeviation="2"/>
<feColorMatrix type="matrix" values="0 0 0 0 0 0 0 0 0 0 0 0 0 0 0 0 0 0 0.2 0"/>
<feBlend mode="normal" in2="BackgroundImageFix" result="effect1_dropShadow"/>
<feBlend mode="normal" in="SourceGraphic" in2="effect1_dropShadow" result="shape"/>
</filter>
</defs>
</svg>
