<svg width="1065" height="328" viewBox="0 0 1065 328" fill="none" xmlns="http://www.w3.org/2000/svg">
<path d="M251.677 180.969L242.075 241.365L299.197 263.274L299.189 208.393L251.677 180.969Z" fill="#A299FF"/>
<path d="M2.81055 235.829V92.1372L50.3446 107.21V208.384L127.253 252.786L132.998 274.691L127.253 307.672L2.81055 235.829Z" fill="#7366FF"/>
<path d="M127.264 75.1861L50.3448 119.579L2.81079 92.1374L127.236 20.3L251.678 92.1374L225.422 113.056L204.172 119.587L127.264 75.1861Z" fill="#7366FF"/>
<path d="M299.212 263.254L251.678 290.715L204.172 263.254V208.387L299.212 263.254Z" fill="#5219FF"/>
<path d="M127.264 109.242L127.236 164.114L174.784 191.547L174.775 136.667L127.264 109.242Z" fill="#A299FF"/>
<path d="M127.236 164.114L79.7188 191.547L127.244 218.994L174.784 191.547L127.236 164.114Z" fill="#5219FF"/>
<path d="M127.264 109.242L79.7244 136.689L79.7188 191.547L127.236 164.114L127.264 109.242Z" fill="#7366FF"/>
<path d="M251.678 92.1372V180.968L204.172 208.387V119.587L251.678 92.1372Z" fill="url(#paint0_linear)"/>
<path d="M251.692 180.94L127.252 252.786V307.672L251.677 235.821L251.692 180.94Z" fill="url(#paint1_linear)"/>
<path d="M547.145 226.706C539.016 218.666 533.469 208.385 531.214 197.176C528.959 185.968 530.098 174.342 534.485 163.784C538.873 153.226 546.309 144.217 555.844 137.908C565.379 131.599 576.578 128.277 588.011 128.367C595.591 128.286 603.112 129.716 610.134 132.573C617.155 135.43 623.538 139.657 628.908 145.007C634.279 150.357 638.53 156.724 641.413 163.735C644.297 170.745 645.755 178.26 645.703 185.841C645.61 197.218 642.17 208.315 635.812 217.75C629.454 227.185 620.46 234.54 609.95 238.897C599.441 243.255 587.881 244.422 576.713 242.254C565.544 240.086 555.261 234.679 547.145 226.706V226.706ZM588.011 220.37C592.512 220.474 596.986 219.655 601.157 217.964C605.329 216.272 609.11 213.744 612.268 210.536C618.583 203.864 622.102 195.027 622.102 185.841C622.102 176.655 618.583 167.818 612.268 161.146C605.768 154.839 597.067 151.312 588.01 151.312C578.953 151.312 570.253 154.839 563.753 161.146C557.438 167.818 553.919 176.655 553.919 185.841C553.919 195.027 557.438 203.864 563.753 210.536C566.91 213.745 570.692 216.272 574.864 217.964C579.036 219.655 583.51 220.474 588.011 220.37Z" fill="white"/>
<path d="M732.874 131.207H758.661L716.047 240.474H688.73L646.116 131.207H671.905L702.499 214.249L732.874 131.207Z" fill="white"/>
<path d="M783.879 195.894C787.376 212.502 800.706 221.681 818.844 221.681C831.3 221.681 840.698 217.091 847.034 208.131L866.485 219.495C855.776 235.448 839.823 243.316 818.625 243.316C800.923 243.316 786.501 237.853 775.575 227.144C770.169 221.742 765.926 215.291 763.107 208.188C760.288 201.085 758.953 193.48 759.184 185.841C758.986 178.291 760.317 170.779 763.096 163.756C765.875 156.733 770.045 150.345 775.356 144.975C786.065 133.829 800.051 128.367 816.878 128.367C824.26 128.17 831.597 129.571 838.386 132.476C845.176 135.38 851.257 139.719 856.212 145.194C866.478 156.295 872.039 170.944 871.729 186.06C871.69 189.356 871.398 192.644 870.854 195.894L783.879 195.894ZM847.908 176.662C844.631 158.961 832.175 149.782 816.659 149.782C799.176 149.782 786.937 160.054 783.66 176.662H847.908Z" fill="white"/>
<path d="M910.858 149.565C916.758 136.015 928.122 131.207 944.511 131.207V154.456C936.096 154.081 927.794 156.511 920.91 161.365C914.136 166.173 910.858 174.257 910.858 185.404V240.474H887.255V131.207H910.858V149.565Z" fill="white"/>
<path d="M1035.68 131.208H1060.81L1018.85 243.971C1008.36 272.16 990.661 285.71 965.53 284.18V262.109C980.39 262.984 988.694 255.771 994.596 240.691L995.687 238.508L949.358 131.207H975.146L1007.71 210.536L1035.68 131.208Z" fill="white"/>
<path d="M522.557 221.673L501.224 209.356C510.615 196.11 515.558 180.224 515.339 163.987C515.319 148.299 510.654 132.968 501.931 119.928C493.208 106.887 480.82 96.7226 466.327 90.715C451.834 84.7075 435.887 83.1264 420.497 86.1711C405.107 89.2159 390.963 96.7501 379.849 107.823C372.327 115.084 366.386 123.82 362.399 133.485C358.413 143.15 356.468 153.535 356.685 163.987C356.604 174.427 358.601 184.779 362.559 194.44C366.517 204.101 372.357 212.878 379.74 220.261C387.122 227.643 395.899 233.483 405.56 237.441C415.221 241.4 425.573 243.396 436.013 243.316C450.386 243.319 464.497 239.471 476.878 232.17C479.553 230.636 482.1 228.889 484.493 226.945L522.557 248.909L522.557 221.673ZM436.013 218.84C428.868 218.976 421.771 217.651 415.157 214.945C408.543 212.239 402.552 208.21 397.551 203.104C387.454 192.585 381.816 178.568 381.816 163.987C381.816 149.406 387.454 135.39 397.551 124.87C407.814 114.787 421.626 109.137 436.013 109.137C450.401 109.137 464.212 114.787 474.475 124.87C479.624 129.975 483.675 136.077 486.381 142.804C489.086 149.531 490.389 156.739 490.208 163.987C490.353 175.814 486.661 187.369 479.686 196.921L436.013 171.705V198.965L460.434 213.062C459.518 213.547 458.959 213.813 458.959 213.813C451.762 217.124 443.935 218.839 436.013 218.84Z" fill="white"/>
<defs>
<linearGradient id="paint0_linear" x1="227.926" y1="92.1369" x2="227.926" y2="208.388" gradientUnits="userSpaceOnUse">
<stop offset="0.25" stop-color="#7366FF"/>
<stop offset="1" stop-color="#5219FF"/>
</linearGradient>
<linearGradient id="paint1_linear" x1="127.251" y1="244.307" x2="251.691" y2="244.307" gradientUnits="userSpaceOnUse">
<stop stop-color="#7366FF"/>
<stop offset="1" stop-color="#A299FF"/>
</linearGradient>
</defs>
</svg>
