<svg width="941" height="201" viewBox="0 0 941 201" fill="none" xmlns="http://www.w3.org/2000/svg">
<path d="M323.599 135.619L314.762 146.187L305.793 138.789C298.055 144.426 288.998 147.244 278.622 147.244C265.257 147.244 254.309 142.841 245.78 134.034C237.338 125.227 233.118 113.603 233.118 99.1598C233.118 84.7169 237.338 73.0922 245.78 64.2856C254.309 55.479 265.257 51.0757 278.622 51.0757C291.988 51.0757 302.891 55.479 311.333 64.2856C319.862 73.0922 324.127 84.7169 324.127 99.1598C324.127 110.432 321.225 120.384 315.422 129.014L323.599 135.619ZM278.622 65.7387C269.477 65.7387 262.443 68.821 257.519 74.9856C252.594 81.1502 250.132 89.2083 250.132 99.1598C250.132 109.111 252.594 117.169 257.519 123.334C262.443 129.499 269.477 132.581 278.622 132.581C284.778 132.581 289.878 131.304 293.922 128.75L282.052 118.843L290.757 108.275L303.155 118.843C306.057 113.559 307.508 106.998 307.508 99.1598C307.508 89.2083 305.002 81.1502 299.99 74.9856C294.978 68.821 287.855 65.7387 278.622 65.7387Z" fill="#454658"/>
<path d="M389.125 136.94C383.233 143.457 375.232 146.715 365.119 146.715C355.007 146.715 346.961 143.457 340.982 136.94C335.091 130.423 332.145 122.321 332.145 112.634C332.145 103.035 335.091 94.9766 340.982 88.4597C346.961 81.8548 355.007 78.5523 365.119 78.5523C375.232 78.5523 383.233 81.8548 389.125 88.4597C395.104 94.9766 398.094 103.035 398.094 112.634C398.094 122.321 395.104 130.423 389.125 136.94ZM378.045 97.0462C374.968 93.1713 370.659 91.2338 365.119 91.2338C359.58 91.2338 355.227 93.1713 352.062 97.0462C348.984 100.921 347.445 106.117 347.445 112.634C347.445 119.239 348.984 124.479 352.062 128.354C355.227 132.229 359.58 134.166 365.119 134.166C370.659 134.166 374.968 132.229 378.045 128.354C381.211 124.479 382.794 119.239 382.794 112.634C382.794 106.117 381.211 100.921 378.045 97.0462Z" fill="#454658"/>
<path d="M465.471 79.7412L440.41 145.394H426.561L401.501 79.7412H416.669L433.42 127.297L450.171 79.7412H465.471Z" fill="#454658"/>
<path d="M528.291 115.012H484.369C485.249 121.617 487.623 126.46 491.492 129.543C495.449 132.625 500.109 134.166 505.473 134.166C512.156 134.166 518.751 132.537 525.258 129.278L526.313 141.696C519.63 145.042 512.332 146.715 504.418 146.715C493.163 146.715 484.413 143.457 478.17 136.94C472.015 130.423 468.937 122.277 468.937 112.502C468.937 102.991 471.751 94.9766 477.379 88.4597C483.094 81.8548 490.832 78.5523 500.593 78.5523C508.946 78.5523 515.805 81.1502 521.169 86.3461C526.533 91.454 529.215 98.2791 529.215 106.821C529.215 108.935 528.907 111.665 528.291 115.012ZM500.857 91.2338C492.239 91.2338 486.963 95.7692 485.029 104.84H513.914C513.914 101.053 512.815 97.8388 510.617 95.1968C508.507 92.5548 505.253 91.2338 500.857 91.2338Z" fill="#454658"/>
<path d="M577.314 78.2881L574.412 92.9511H568.873C566.235 92.9511 563.685 93.6556 561.222 95.0647C558.848 96.4737 557.134 98.147 556.078 100.084V145.394H540.778V79.7412H554.364L555.155 87.9313C560.959 81.5025 567.246 78.2881 574.017 78.2881H577.314Z" fill="#454658"/>
<path d="M650.635 79.7412L609.878 177.362H594.446L609.219 141.431L581.916 79.7412H598.535L616.473 123.994L634.016 79.7412H650.635Z" fill="#454658"/>
<path d="M125.304 77.431V168.524L169.82 142.793V50.048L125.304 77.431Z" fill="#33369F"/>
<path d="M87.2461 0.64856L0.276001 48.2593L47.9515 77.4312L87.1087 55.4147L125.304 77.4312L169.82 50.0481L87.2461 0.64856Z" fill="#B7B9E7"/>
<path d="M0.276001 48.2594L48.0889 77.4313L47.6768 122.428L100.985 151.324L101.535 200.586L0.276001 143.068V48.2594Z" fill="#7173CD"/>
<path d="M87.1086 55.4144L125.304 77.4309C125.304 77.4309 125.408 123.037 125.408 122.349C128.183 123.684 87.6582 102.2 87.6582 102.2L87.1086 55.4144Z" fill="#7173CD"/>
<path d="M47.6768 122.427L87.6583 102.2L87.1087 55.4144L48.089 77.4309L47.6768 122.427Z" fill="#33369F"/>
<path d="M100.985 151.324L47.6768 122.427L87.6583 102.199L138.769 129.445L100.985 151.324Z" fill="#B7B9E7"/>
<path d="M101.535 200.586L138.082 175.955L138.769 129.445L100.985 151.324L101.535 200.586Z" fill="#33369F"/>
<path d="M4.95984 51.1488C19.2487 59.9555 33.7997 68.6322 48.0886 77.4388C61.141 70.1458 74.0605 62.7086 87.1129 55.4156C99.8905 62.7086 112.539 70.1381 125.317 77.4311C138.369 69.1749 151.57 61.4809 164.557 53.2817L87.1211 6.703C59.7798 21.5641 32.4385 36.2877 4.95984 51.1488Z" fill="#B7B9E7"/>
<rect x="695.643" y="63.6592" width="245.291" height="101.267" rx="6.75113" fill="#7173CD"/>
<path d="M749.988 125.925V132.161H726.878V97.2785H749.988V103.515H734.178V111.662H749.093V117.44H734.178V125.925H749.988ZM764.661 132.161H757.675V97.2785H763.767L779.819 119.011H780.254V97.2785H787.24V132.161H781.196L765.097 110.332H764.661V132.161ZM826.378 117.923C826.378 122.581 824.992 126.271 822.22 128.995C819.448 131.702 815.677 133.056 810.906 133.056C805.717 133.056 801.631 131.42 798.65 128.149C795.669 124.877 794.178 120.389 794.178 114.684C794.178 109.059 795.669 104.603 798.65 101.316C801.631 98.0278 805.66 96.384 810.737 96.384C814.863 96.384 818.32 97.4799 821.108 99.6717C823.896 101.863 825.548 104.772 826.063 108.398H818.811C818.263 106.626 817.288 105.256 815.886 104.289C814.484 103.306 812.768 102.814 810.737 102.814C807.917 102.814 805.693 103.87 804.065 105.981C802.453 108.076 801.648 110.953 801.648 114.611C801.648 118.334 802.486 121.267 804.162 123.411C805.854 125.554 808.142 126.626 811.027 126.626C813.412 126.626 815.362 125.981 816.877 124.692C818.392 123.402 819.19 121.702 819.27 119.591L819.295 118.963H811.728V113.475H826.378V117.923ZM840.689 132.161H833.388V97.2785H840.689V132.161ZM856.136 132.161H849.149V97.2785H855.241L871.293 119.011H871.728V97.2785H878.714V132.161H872.671L856.571 110.332H856.136V132.161ZM910.31 125.925V132.161H887.199V97.2785H910.31V103.515H894.5V111.662H909.415V117.44H894.5V125.925H910.31Z" fill="white"/>
</svg>
