<svg width="52" height="126" viewBox="0 0 52 126" fill="none" xmlns="http://www.w3.org/2000/svg">
<path d="M22.2538 124.897L22.2538 124.897L22.2571 124.898C23.4195 125.513 24.7189 125.823 26.0338 125.8C27.3457 125.825 28.6423 125.514 29.8008 124.898L29.8008 124.898L29.8038 124.897L49.5858 113.481C50.0688 113.31 50.487 112.993 50.7835 112.575C51.0817 112.154 51.2419 111.651 51.2419 111.135C51.2419 110.619 51.0817 110.116 50.7835 109.695C50.487 109.277 50.0688 108.96 49.5858 108.789L29.8038 97.3733L29.8039 97.3732L29.799 97.3707C28.6302 96.7793 27.3387 96.4711 26.0288 96.4711C24.7189 96.4711 23.4274 96.7793 22.2587 97.3707L22.2586 97.3706L22.2538 97.3733L2.47825 108.791C2.02076 108.996 1.62632 109.32 1.33563 109.729C1.04394 110.139 0.867352 110.62 0.824196 111.121L0.823438 111.13L0.824238 111.139C0.869806 111.641 1.04713 112.122 1.33827 112.533C1.6285 112.943 2.02155 113.269 2.47786 113.479L22.2538 124.897ZM49.3323 112.975L49.3226 112.978L49.3138 112.983L29.5362 124.422C28.4486 124.971 27.2472 125.257 26.0288 125.257C24.8104 125.257 23.609 124.971 22.5214 124.422L2.74388 112.983L2.73504 112.978L2.72534 112.975C2.33459 112.845 1.99463 112.596 1.7537 112.262C1.51277 111.928 1.38311 111.527 1.38311 111.115C1.38311 110.703 1.51277 110.302 1.7537 109.968C1.99463 109.634 2.33459 109.385 2.72534 109.255L2.735 109.252L2.74382 109.247L22.5214 97.8279C23.609 97.2786 24.8104 96.9925 26.0288 96.9925C27.2473 96.9925 28.4487 97.2786 29.5363 97.8279L49.3138 109.247L49.3226 109.252L49.3323 109.255C49.7231 109.385 50.063 109.634 50.3039 109.968C50.5449 110.302 50.6745 110.703 50.6745 111.115C50.6745 111.527 50.5449 111.928 50.3039 112.262C50.063 112.596 49.7231 112.845 49.3323 112.975Z" fill="#B160F0" stroke="#B160F0" stroke-width="0.2"/>
<path opacity="0.2" d="M51.7435 106.75V99.98L50.5035 99.29C50.1535 101.4 47.6735 102.8 45.5835 103.09L31.4135 111.37L25.2235 113.61L5.48347 103.42L5.94347 103.16C4.25347 102.37 3.34347 100.56 2.43347 98.92L1.10347 99.71L0.313477 99.93V106.82C0.365822 107.342 0.554027 107.841 0.859329 108.267C1.16463 108.693 1.57635 109.032 2.05347 109.25L21.8235 120.67C23.1264 121.326 24.5648 121.668 26.0235 121.668C27.4822 121.668 28.9206 121.326 30.2235 120.67L50.0035 109.25C50.472 109.035 50.8773 108.704 51.1803 108.287C51.4833 107.87 51.6738 107.382 51.7335 106.87V106.75H51.7435Z" fill="#B160F0"/>
<path d="M51.7435 100.73V96.25L50.5035 95.56C50.1535 97.67 47.6735 99.07 45.5835 99.36L31.4135 107.65L25.2235 109.88L5.48347 99.69L5.94347 99.43C4.25347 98.64 3.34347 96.84 2.43347 95.19L1.10347 95.98L0.313477 96.21V100.8C0.365822 101.322 0.554027 101.821 0.859329 102.247C1.16463 102.673 1.57635 103.012 2.05347 103.23L21.8235 114.65C23.1264 115.306 24.5648 115.648 26.0235 115.648C27.4822 115.648 28.9206 115.306 30.2235 114.65L50.0035 103.23C50.4733 103.014 50.8795 102.681 51.1826 102.262C51.4857 101.844 51.6755 101.354 51.7335 100.84V100.73H51.7435Z" fill="url(#paint0_linear)"/>
<path opacity="0.3" d="M45.5837 99.36L31.4137 107.65L26.0337 109.59V115.65C27.496 115.68 28.9418 115.336 30.2337 114.65L50.0137 103.23C50.4835 103.014 50.8897 102.681 51.1928 102.262C51.4959 101.844 51.6857 101.354 51.7437 100.84V100.73V96.25L50.6137 95.62H50.4937C50.1137 97.7 47.6537 99.07 45.5837 99.36Z" fill="#0F054C"/>
<path d="M21.8235 110.07L2.05348 98.67C-0.266523 97.34 -0.266523 95.16 2.05348 93.82L21.8235 82.4C23.1264 81.7441 24.5648 81.4024 26.0235 81.4024C27.4822 81.4024 28.9206 81.7441 30.2235 82.4L50.0035 93.82C52.3135 95.16 52.3135 97.34 50.0035 98.67L30.2335 110.07C28.9307 110.732 27.4899 111.077 26.0285 111.077C24.567 111.077 23.1263 110.732 21.8235 110.07Z" fill="url(#paint1_linear)"/>
<path d="M50.0137 98.67L30.2337 110.07C28.9322 110.731 27.4932 111.075 26.0337 111.075C24.5741 111.075 23.1352 110.731 21.8337 110.07L2.05368 98.67C1.6219 98.4693 1.24215 98.1719 0.943867 97.8008C0.645584 97.4297 0.436783 96.9948 0.333683 96.53C0.193683 97.53 0.763684 98.53 2.05368 99.23L21.8237 110.65C23.1252 111.311 24.5642 111.655 26.0237 111.655C27.4832 111.655 28.9222 111.311 30.2237 110.65L50.0037 99.23C50.5318 99.0105 50.9794 98.6335 51.2854 98.1503C51.5915 97.6671 51.741 97.1013 51.7137 96.53C51.612 96.9926 51.406 97.4259 51.1113 97.7968C50.8167 98.1676 50.4413 98.4663 50.0137 98.67Z" fill="white"/>
<rect x="17.7539" y="42.7676" width="15" height="26" fill="#E8EBFA"/>
<path opacity="0.4" d="M45.3093 91.5659V0H5.31299V91.6839C5.31299 94.306 7.05848 94.0441 10.6585 96.0501C17.7904 99.9833 32.8456 99.9833 39.9775 96.0501C43.632 94.0179 45.4048 94.2274 45.3093 91.5659Z" fill="url(#paint2_linear)"/>
<g clip-path="url(#clip0)">
<path d="M34.856 50.9396C34.5719 50.8422 34.2853 50.7518 33.9966 50.6688C34.0451 50.4706 34.0897 50.2748 34.1293 50.0825C34.78 46.9241 34.3546 44.3796 32.9018 43.5418C31.5088 42.7387 29.2307 43.5761 26.93 45.5784C26.7032 45.7761 26.4815 45.9795 26.265 46.1884C26.1201 46.0495 25.9726 45.9133 25.8227 45.7798C23.4114 43.6389 20.9945 42.7366 19.5432 43.5767C18.1515 44.3824 17.7394 46.7744 18.3251 49.7677C18.3834 50.0641 18.4492 50.3591 18.5225 50.6522C18.1804 50.7494 17.8502 50.8529 17.5343 50.963C14.7072 51.9487 12.9019 53.4933 12.9019 55.0955C12.9019 56.7503 14.84 58.4101 17.7845 59.4165C18.0232 59.4978 18.2639 59.5731 18.5064 59.6423C18.4277 59.958 18.3578 60.2759 18.2968 60.5955C17.7383 63.5368 18.1744 65.8723 19.5624 66.6728C20.9959 67.4995 23.402 66.6499 25.7448 64.6019C25.9347 64.4354 26.1205 64.2642 26.302 64.0884C26.5364 64.3146 26.7771 64.5342 27.0237 64.747C29.2932 66.6997 31.5345 67.4883 32.9211 66.6855C34.3533 65.8564 34.8188 63.3475 34.2144 60.2951C34.1668 60.0559 34.1135 59.818 34.0543 59.5814C34.2233 59.5314 34.3892 59.4798 34.5508 59.4262C37.6119 58.4121 39.6036 56.7724 39.6036 55.0955C39.6036 53.4875 37.7399 51.9324 34.856 50.9396ZM34.1921 58.3435C34.0461 58.3918 33.8963 58.4385 33.7436 58.4838C33.4057 57.414 32.9497 56.2765 32.3915 55.1011C32.9241 53.9537 33.3626 52.8307 33.691 51.7678C33.9642 51.8469 34.2293 51.9302 34.4848 52.0181C36.9558 52.8688 38.4629 54.1264 38.4629 55.0955C38.4629 56.1277 36.8352 57.4677 34.1921 58.3435ZM33.0955 60.5166C33.3627 61.8663 33.4008 63.0867 33.2238 64.0407C33.0648 64.898 32.745 65.4695 32.3495 65.6984C31.5081 66.1855 29.7085 65.5524 27.7677 63.8823C27.5383 63.6845 27.3144 63.4803 27.0963 63.27C27.8488 62.4472 28.6007 61.4906 29.3346 60.4282C30.6255 60.3136 31.845 60.1263 32.9509 59.8707C33.0054 60.0904 33.0538 60.3059 33.0955 60.5166ZM22.0051 65.6142C21.1829 65.9045 20.5281 65.9129 20.1323 65.6847C19.29 65.1989 18.9399 63.3236 19.4175 60.8082C19.4743 60.511 19.5393 60.2154 19.6124 59.9218C20.7062 60.1637 21.9168 60.3377 23.2107 60.4427C23.9496 61.4823 24.7232 62.4378 25.5029 63.2745C25.3372 63.4348 25.1676 63.5911 24.9942 63.743C23.9582 64.6486 22.92 65.2911 22.0051 65.6142ZM18.1535 58.3372C16.8515 57.8921 15.7763 57.3138 15.0392 56.6826C14.3769 56.1155 14.0426 55.5524 14.0426 55.0955C14.0426 54.1232 15.4921 52.883 17.9098 52.0402C18.2032 51.9379 18.5103 51.8415 18.8289 51.7509C19.1631 52.8378 19.6014 53.9742 20.1303 55.1233C19.5945 56.2894 19.15 57.4439 18.8125 58.5436C18.5912 58.4802 18.3715 58.4114 18.1535 58.3372ZM19.4446 49.5485C18.9428 46.984 19.2761 45.0495 20.1148 44.564C21.008 44.0468 22.9833 44.7842 25.0653 46.6328C25.2011 46.7537 25.3347 46.8769 25.466 47.0026C24.6902 47.8357 23.9236 48.7841 23.1913 49.8175C21.9355 49.934 20.7334 50.1209 19.6282 50.3713C19.5601 50.0987 19.4989 49.8244 19.4446 49.5487V49.5485ZM30.9626 52.3927C30.7015 51.9418 30.4308 51.4966 30.1506 51.0573C31.0025 51.165 31.8188 51.308 32.5853 51.4829C32.3552 52.2205 32.0684 52.9916 31.7308 53.7822C31.484 53.314 31.2279 52.8507 30.9626 52.3927ZM26.2656 47.8178C26.7917 48.3879 27.3186 49.0242 27.8369 49.7147C26.7855 49.6651 25.7324 49.6648 24.681 49.7141C25.1998 49.03 25.7312 48.3944 26.2656 47.8178ZM21.5384 52.4005C21.2764 52.8549 21.0251 53.3152 20.7846 53.7813C20.4525 52.9935 20.1683 52.2188 19.9362 51.4708C20.698 51.3003 21.5105 51.161 22.357 51.0552C22.0736 51.4971 21.8007 51.9457 21.5384 52.4004V52.4005ZM22.3813 59.217C21.5067 59.1194 20.6821 58.9872 19.9205 58.8214C20.1562 58.0599 20.4467 57.2688 20.786 56.4641C21.0274 56.9305 21.2798 57.3912 21.5429 57.8457C21.8135 58.313 22.0936 58.7707 22.3813 59.217ZM26.2971 62.4535C25.7564 61.8703 25.2171 61.2249 24.6905 60.5309C25.2018 60.5509 25.723 60.5611 26.2527 60.5611C26.797 60.5611 27.335 60.5489 27.8645 60.5254C27.3446 61.2319 26.8196 61.8782 26.2971 62.4535ZM31.7415 56.423C32.0984 57.2366 32.3992 58.0235 32.6381 58.7719C31.864 58.9486 31.0281 59.0909 30.1473 59.1965C30.4296 58.7491 30.7028 58.2962 30.9671 57.8379C31.2357 57.3721 31.4939 56.9003 31.7415 56.423ZM29.979 57.268C29.5745 57.9706 29.1473 58.6599 28.698 59.3347C27.8842 59.3924 27.0686 59.421 26.2527 59.4206C25.4217 59.4206 24.6135 59.3947 23.8352 59.3442C23.3742 58.6709 22.9388 57.9804 22.53 57.2742H22.5301C22.1233 56.5717 21.7432 55.8541 21.3908 55.1227C21.7423 54.3913 22.1212 53.6732 22.5267 52.9702L22.5266 52.9703C22.9319 52.2671 23.3638 51.5796 23.8213 50.9092C24.6154 50.8491 25.4297 50.8178 26.2526 50.8178H26.2527C27.0794 50.8178 27.8948 50.8494 28.6886 50.9099C29.1415 51.5793 29.5707 52.2645 29.9752 52.9642C30.3821 53.6656 30.766 54.3802 31.1263 55.1066C30.7697 55.8404 30.387 56.5614 29.979 57.268ZM32.3321 44.53C33.2262 45.0457 33.5739 47.1252 33.0121 49.8522C32.9763 50.0262 32.936 50.2034 32.8922 50.3831C31.7843 50.1273 30.5813 49.9372 29.3219 49.819C28.5882 48.7742 27.8279 47.8243 27.0647 47.002C27.2648 46.8092 27.4695 46.6214 27.6789 46.4387C29.6502 44.7233 31.4926 44.0459 32.3321 44.53ZM26.2527 52.7111C27.5696 52.7111 28.6371 53.7787 28.6371 55.0955C28.6371 56.4124 27.5696 57.4799 26.2527 57.4799C24.9359 57.4799 23.8684 56.4124 23.8684 55.0955C23.8684 53.7787 24.9359 52.7111 26.2527 52.7111Z" fill="#B160F0"/>
</g>
<defs>
<linearGradient id="paint0_linear" x1="13249.2" y1="2207.85" x2="14150" y2="3515.28" gradientUnits="userSpaceOnUse">
<stop stop-color="#DEBCFF"/>
<stop offset="0.23" stop-color="#DFAAF8"/>
<stop offset="0.68" stop-color="#CA7CE5"/>
<stop offset="1" stop-color="#B657D7"/>
</linearGradient>
<linearGradient id="paint1_linear" x1="12984" y1="3410.34" x2="15628.6" y2="3410.34" gradientUnits="userSpaceOnUse">
<stop stop-color="#F4E9FD"/>
<stop offset="0.36" stop-color="#EAD2F9"/>
<stop offset="0.71" stop-color="#EAC4F7"/>
<stop offset="1" stop-color="#EBBFF6"/>
</linearGradient>
<linearGradient id="paint2_linear" x1="25.3112" y1="9.00794" x2="25.313" y2="99" gradientUnits="userSpaceOnUse">
<stop stop-color="#F5E9FD" stop-opacity="0"/>
<stop offset="0.515094" stop-color="#F4E9FD"/>
<stop offset="1" stop-color="#F7E9FD"/>
</linearGradient>
<clipPath id="clip0">
<rect width="26.7018" height="23.7813" fill="white" transform="translate(12.9019 43.2394)"/>
</clipPath>
</defs>
</svg>
