<svg width="33" height="96" viewBox="0 0 33 96" fill="none" xmlns="http://www.w3.org/2000/svg">
<g style="mix-blend-mode:multiply">
<path d="M29.9483 88.2462C29.9483 92.3678 23.2387 95.7013 14.9742 95.7013C6.70962 95.7013 0 92.3678 0 88.2462C0 84.1246 6.70962 80.7911 14.9742 80.7911C23.2387 80.7911 29.9483 84.1352 29.9483 88.2462Z" fill="#5D64D2" fill-opacity="0.1"/>
</g>
<path d="M24.144 45.6242C24.232 46.1882 24.1997 46.7645 24.0492 47.3151C23.8987 47.8658 23.6334 48.3784 23.2707 48.8192C23.1815 48.9529 23.0609 49.0627 22.9193 49.1387C21.6945 49.4796 21.0874 45.113 21.0874 45.113C21.0874 45.113 20.7786 46.0395 20.704 46.3484C20.6723 46.4911 20.5927 46.6187 20.4784 46.7098C20.364 46.8008 20.2219 46.85 20.0757 46.8489C19.5538 46.8489 19.5751 46.3058 19.6709 46.0502L19.9798 43.803C20.0218 43.4983 20.1154 43.2029 20.2567 42.9297L20.5336 42.3865C20.8287 41.7855 20.9539 41.1152 20.8957 40.4482L20.7679 38.8719L23.0151 39.266L23.5476 41.396C23.7102 42.2054 23.8275 43.0232 23.8991 43.8456L24.144 45.6242Z" fill="#FCBAC0"/>
<path d="M22.6103 33.238C22.6103 33.0569 22.6103 32.8759 22.557 32.6842C22.4399 30.9695 21.8008 21.789 21.6943 20.1063L15.5918 21.2885L17.4343 33.1102C17.4714 33.5229 17.539 33.9322 17.6366 34.3349L20.2459 43.9201C21.3109 44.5378 23.6433 43.8243 24.3569 42.8551L22.6103 33.238Z" fill="#474EBB"/>
<path d="M7.72157 86.031C8.17953 84.5612 9.3191 83.6134 10.2883 83.9009C11.2574 84.1885 11.3533 85.5517 11.2042 87.096C11.1491 87.3701 11.0405 87.6306 10.8847 87.8628C10.6143 88.3554 10.4749 88.9091 10.48 89.471C10.4889 89.9335 10.4205 90.3942 10.2776 90.8342C9.8883 91.7512 9.15377 92.4781 8.23279 92.8577C8.08692 92.9299 7.92812 92.9723 7.76568 92.9824C7.60324 92.9925 7.44042 92.9701 7.28673 92.9166C7.13304 92.863 6.99154 92.7794 6.87054 92.6705C6.74955 92.5617 6.65148 92.4298 6.58203 92.2826C6.34447 91.7836 6.22119 91.2378 6.22119 90.6851C6.22119 90.1324 6.34447 89.5866 6.58203 89.0876C6.78438 88.6509 7.63637 86.3079 7.72157 86.031Z" fill="#454658"/>
<path d="M18.2868 84.4654C18.5785 84.7236 18.8525 85.0012 19.1069 85.2961C19.7117 85.8649 20.4412 86.2843 21.2369 86.5209C22.0767 86.8758 22.9996 86.9865 23.8995 86.8404C24.0437 86.8023 24.1766 86.7298 24.2868 86.6293C24.397 86.5287 24.4813 86.4031 24.5325 86.2629C24.5838 86.1228 24.6004 85.9724 24.581 85.8245C24.5617 85.6766 24.5069 85.5355 24.4214 85.4133C23.8764 84.7014 23.2549 84.0514 22.5682 83.475L21.2156 82.3141C20.6813 81.8632 20.3448 81.2209 20.2784 80.5249C20.2871 80.2693 20.2398 80.0148 20.14 79.7794C18.7767 79.2575 16.8278 79.545 16.487 80.2054C16.487 80.2054 16.0929 82.2289 16.0929 82.7294C16.0786 82.9578 16.1382 83.1846 16.2629 83.3765C16.3876 83.5683 16.5707 83.7148 16.7852 83.7945C17.3152 83.9453 17.8209 84.1712 18.2868 84.4654Z" fill="#454658"/>
<path d="M6.00732 31.2891V36.3054C6.00732 37.0615 7.28533 86.063 7.28533 86.063C7.28533 87.3091 11.9714 87.4263 11.9608 85.8181L14.1973 50.4914L15.5925 80.5462C15.5925 82.0373 20.7472 81.6113 20.5235 80.4291L21.2584 39.6921C21.2717 38.9768 21.2038 38.2622 21.056 37.5621L6.00732 31.2891Z" fill="#2F3155"/>
<path d="M21.1835 36.9763L21.5456 42.4398C20.6296 43.1853 17.9671 44.0693 14.985 44.4101C11.1297 44.8681 8.27541 44.229 6.62463 43.1321C6.4479 43.0137 6.30108 42.8559 6.19574 42.671C6.09039 42.4862 6.02939 42.2795 6.01756 42.0671V41.5133V41.4387L5.92171 38.5418V38.3182L6.20929 29.9791L3.41895 24.1109C3.41895 21.0969 5.91107 19.2863 8.45646 17.7207C8.65882 17.6036 8.85054 17.4758 9.07419 17.3586L9.2446 17.2628L11.3746 16.0593L13.1745 14.9943C13.3662 14.8984 14.8253 15.6972 15.017 15.6227C15.5079 15.413 16.0293 15.2835 16.5613 15.2392C17.263 15.2307 17.9592 15.3625 18.6092 15.6271C19.2591 15.8917 19.8496 16.2836 20.3458 16.7798C20.842 17.276 21.2339 17.8665 21.4985 18.5164C21.7631 19.1664 21.8949 19.8626 21.8864 20.5643L20.9918 30.8524C20.8655 32.2962 20.894 33.7493 21.0769 35.187C21.0769 35.8261 21.1409 36.4012 21.1835 36.9763Z" fill="#5D64D2"/>
<path d="M15.9648 43.558C13.1106 44.0266 8.64814 42.4291 5.99624 41.428V41.3535L5.90039 38.4566L14.7507 40.9061L15.9648 43.558Z" fill="#474EBB"/>
<path d="M11.2575 38.1265C10.4907 38.0307 9.29788 38.9359 8.63756 38.6697L7.7749 36.4225L8.49911 25.8469L10.0114 34.4309L11.2682 38.1159L11.2575 38.1265Z" fill="#474EBB"/>
<path d="M10.6181 16.6131V16.5386V10.2124H14.8782V16.2723L15.2722 16.4001C15.5704 16.5279 15.5598 16.8262 15.432 17.1563C15.2498 17.5627 14.9487 17.9043 14.5685 18.1363C14.1882 18.3682 13.7467 18.4796 13.302 18.4556C12.6417 18.4294 11.9871 18.3221 11.353 18.1361C11.0565 18.0276 10.814 17.8079 10.6768 17.5236C10.5396 17.2393 10.5186 16.9127 10.6181 16.6131Z" fill="#FBB2B8"/>
<path d="M11.8753 10.1592C12.9404 11.4691 13.196 13.0667 12.3866 13.7376C11.5771 14.4086 10.2565 14.0145 8.9572 12.5768C8.00523 11.5402 7.43434 10.2107 7.33838 8.80661C7.33838 8.80661 10.789 8.8492 11.8753 10.1592Z" fill="#343C6B"/>
<path d="M14.9745 11.0537V16.0167C14.9745 16.5279 13.9095 16.8581 13.0575 16.5066C11.7475 15.9635 10.6719 14.9198 10.6719 13.8121V11.0537H14.9745Z" fill="#EF9B9B"/>
<path d="M17.7435 12.6407C17.0512 16.1659 14.7188 16.5174 12.5142 15.4736C11.7789 15.1909 11.1182 14.7435 10.5828 14.1656C10.0474 13.5877 9.65154 12.8948 9.42569 12.1401C9.21268 11.1284 8.44587 10.1805 8.36067 9.34978C8.25712 8.69341 8.2915 8.02267 8.46162 7.38033C8.63174 6.73799 8.93387 6.13816 9.34872 5.61909C9.76358 5.10002 10.2821 4.67309 10.8711 4.36556C11.4601 4.05804 12.1068 3.87667 12.7699 3.83299C18.8298 3.37503 17.9778 11.4266 17.7435 12.6407Z" fill="#FBB2B8"/>
<path d="M7.23192 6.53802C7.48753 3.80092 10.7252 1.21292 14.6125 2.27794C16.6573 2.81045 18.0419 3.20449 18.3507 4.72747C18.4861 5.26461 18.4931 5.8261 18.3709 6.36641C18.2488 6.90672 18.0011 7.41066 17.6478 7.83734L17.5839 7.57109C17.528 7.34108 17.3871 7.14075 17.1895 7.01037C16.9919 6.87998 16.7524 6.82919 16.5189 6.86817C15.3384 6.84217 14.1617 7.0113 13.0363 7.36873C12.787 7.47765 12.513 7.51733 12.2431 7.48359C11.9732 7.44985 11.7174 7.34392 11.5027 7.177L10.6187 6.53802L11.5452 7.60304C11.6659 7.74932 11.7453 7.92514 11.7753 8.11237C11.8052 8.2996 11.7846 8.49144 11.7156 8.66805C11.6859 8.75175 11.661 8.83709 11.6411 8.92365L9.01052 7.30483C8.86926 7.2182 8.70754 7.17057 8.54188 7.1668C8.37621 7.16302 8.2125 7.20321 8.06745 7.28332C7.92239 7.36342 7.80117 7.48058 7.71614 7.6228C7.6311 7.76502 7.58528 7.92724 7.58337 8.09294V9.78631C7.20831 8.74719 7.0878 7.63331 7.23192 6.53802Z" fill="#343C6B"/>
<path d="M9.0745 7.34739L11.7051 8.92363C11.6251 9.17294 11.5716 9.42995 11.5453 9.69045C11.5453 10.2017 11.0448 9.88215 10.5549 9.69045C10.2567 9.58394 9.91585 10.1271 9.78804 9.94604C9.44724 9.52003 8.91473 9.43484 8.86148 9.75434C8.72916 10.2399 8.70015 10.7479 8.7763 11.2454C8.27093 10.8582 7.87762 10.3436 7.63672 9.75434V8.06097C7.64995 7.90003 7.70454 7.74523 7.7952 7.6116C7.88585 7.47796 8.0095 7.37004 8.15415 7.29825C8.29879 7.22646 8.45952 7.19327 8.62078 7.20188C8.78203 7.21049 8.93832 7.2606 9.0745 7.34739Z" fill="#343C6B"/>
<path d="M10.5757 9.98871C11.1188 10.7555 11.1508 11.6714 10.6502 12.0229C10.1497 12.3744 9.3083 12.0229 8.76514 11.2667C8.22198 10.5106 8.19002 9.57335 8.69058 9.2219C9.19114 8.87044 10.0432 9.1793 10.5757 9.98871Z" fill="#FBB2B8"/>
<path d="M21.8761 34.974L32.3133 29.0312L28.6496 42.9511L18.1592 48.979L21.8761 34.974Z" fill="#F1F5FF"/>
<path d="M14.0693 42.8765C14.8361 43.1534 15.4858 43.409 15.9757 43.6007C17.3537 43.7728 18.7406 43.8652 20.1293 43.8776C21.2498 43.7182 22.3323 43.3574 23.3243 42.8126C24.9857 41.3109 22.2593 39.8199 22.2593 39.8199C21.9717 38.446 18.83 41.1512 17.4454 40.8849C17.2366 40.9125 17.0248 40.9089 16.8171 40.8743C16.2652 40.6906 15.7276 40.4663 15.2089 40.2033L14.0693 42.8765Z" fill="#FBB2B8"/>
<path d="M16.817 40.7251C16.0821 40.9487 15.5602 43.1108 15.9862 43.7498C15.9862 43.7498 6.63538 41.7049 4.39884 38.8933C3.33382 37.5301 3.38708 28.7756 3.40838 24.0682C3.40471 23.7364 3.46968 23.4075 3.5992 23.102C3.72872 22.7965 3.92 22.5212 4.16102 22.2931C4.40205 22.0651 4.68762 21.8894 4.9998 21.777C5.31197 21.6646 5.64402 21.6179 5.97508 21.64C6.58448 21.6685 7.16131 21.9234 7.59269 22.3548C8.02407 22.7861 8.27896 23.363 8.30747 23.9724C8.44592 26.816 8.63762 34.4095 8.66957 35.5385C8.67318 35.606 8.69621 35.6711 8.73588 35.7259C8.77555 35.7806 8.83017 35.8228 8.89322 35.8473C9.43638 36.1562 16.817 40.7251 16.817 40.7251Z" fill="#5D64D2"/>
<path d="M6.81592 6.92133C6.81592 5.14275 9.39327 3.72627 12.5777 3.72627C14.4142 3.62803 16.2203 4.22502 17.6365 5.39836L17.8495 5.30251L19.8411 6.85743C20.0807 7.04405 20.2707 7.28671 20.3945 7.56402C20.5183 7.84133 20.5721 8.14479 20.551 8.44775C20.53 8.7507 20.4348 9.04387 20.2739 9.30141C20.1129 9.55894 19.8912 9.77298 19.6281 9.92469L17.4981 11.1707C16.8221 11.5602 16.061 11.7784 15.2814 11.8063C14.5017 11.8341 13.7271 11.6708 13.025 11.3305L9.75538 9.733C7.98745 9.15789 6.81592 8.11415 6.81592 6.92133Z" fill="#EC8E41"/>
<path d="M6.81592 6.52731C6.81592 4.74873 9.39327 3.33225 12.5777 3.33225C14.4163 3.23165 16.2245 3.8331 17.6365 5.01497L17.8495 4.91912L19.8411 6.47407C20.0807 6.66069 20.2707 6.90332 20.3945 7.18063C20.5183 7.45794 20.5721 7.76143 20.551 8.06438C20.53 8.36734 20.4348 8.66047 20.2739 8.91801C20.1129 9.17555 19.8912 9.38958 19.6281 9.5413L17.4981 10.7767C16.8227 11.168 16.0615 11.3872 15.2815 11.4151C14.5014 11.443 13.7266 11.2786 13.025 10.9365L9.75538 9.3496C7.98745 8.76384 6.81592 7.72013 6.81592 6.52731Z" fill="#FFD474"/>
<path d="M6.9541 6.21847C6.9541 8.02901 9.65928 9.49875 13.0034 9.49875C13.7189 9.50072 14.4326 9.42933 15.1335 9.28573C16.3648 9.09525 17.509 8.5343 18.4137 7.67754C18.8074 7.29213 19.0364 6.76917 19.0527 6.21847C19.0527 4.6141 18.4154 3.07544 17.2809 1.94098C16.1465 0.806513 14.6078 0.169175 13.0034 0.169175C12.7005 0.168994 12.398 0.190346 12.0982 0.233074C10.6662 0.449798 9.35959 1.17306 8.41564 2.27139C7.4717 3.36973 6.95309 4.77024 6.9541 6.21847Z" fill="#FFB54D"/>
<path d="M15.1659 8.92371C15.171 8.99462 15.171 9.06581 15.1659 9.13673C15.1586 9.20087 15.1723 9.26564 15.2049 9.32134C15.2376 9.37703 15.2874 9.42061 15.347 9.44556C15.473 9.47585 15.6044 9.47585 15.7304 9.44556C16.7328 9.04755 17.6481 8.45788 18.4249 7.70957C18.4806 5.90587 17.8659 4.14553 16.6995 2.76862C15.533 1.39171 13.8976 0.495944 12.1093 0.25444C11.1666 0.358491 10.2598 0.675344 9.4574 1.18103L9.27637 1.47924C10.9569 1.86817 12.4552 2.81688 13.5254 4.16964C14.5956 5.5224 15.1741 7.19882 15.1659 8.92371Z" fill="#EC8E41"/>
<path d="M15.4958 8.61475C15.4958 8.69995 15.4958 8.96621 15.4958 9.17921C15.4949 9.21639 15.5025 9.2533 15.5179 9.28712C15.5334 9.32093 15.5564 9.35078 15.5852 9.37438C15.6139 9.39799 15.6477 9.41474 15.6838 9.42336C15.72 9.43199 15.7577 9.43227 15.794 9.42418C16.804 9.21496 17.7474 8.76155 18.5417 8.10356C18.613 8.03451 18.6696 7.95171 18.7081 7.86019C18.7465 7.76867 18.766 7.67032 18.7654 7.57106V7.20895C18.7654 5.69683 18.2962 4.22194 17.4225 2.98775C16.5489 1.75355 15.3138 0.820853 13.8876 0.31828C13.0066 0.0219992 12.0528 0.0219992 11.1718 0.31828C10.5556 0.508791 9.97843 0.808162 9.46777 1.20223C11.1542 1.59064 12.6629 2.53063 13.7548 3.87329C14.8466 5.21596 15.4593 6.88454 15.4958 8.61475Z" fill="#FFD474"/>
<path d="M14.1968 50.5232L15.6239 49.8842C15.7047 49.8314 15.7987 49.8026 15.8952 49.8011C15.9916 49.7995 16.0866 49.8253 16.169 49.8754C16.2514 49.9255 16.318 49.998 16.361 50.0843C16.404 50.1707 16.4217 50.2675 16.412 50.3634L14.7932 63.3034L14.1968 50.5232Z" fill="#1F2644"/>
</svg>
